<?xml version="1.0" encoding="UTF-8" standalone="no"?>
<svg
   width="1200.0425pt"
   height="736.38702pt"
   version="1.1"
   viewBox="0 0 1200.0425 736.38702"
   id="svg51"
   sodipodi:docname="golioth-g-gradient-cloud.svg"
   inkscape:version="1.1.2 (0a00cf5339, 2022-02-04)"
   xmlns:inkscape="http://www.inkscape.org/namespaces/inkscape"
   xmlns:sodipodi="http://sodipodi.sourceforge.net/DTD/sodipodi-0.dtd"
   xmlns:xlink="http://www.w3.org/1999/xlink"
   xmlns="http://www.w3.org/2000/svg"
   xmlns:svg="http://www.w3.org/2000/svg">
  <defs
     id="defs55">
    <linearGradient
       inkscape:collect="always"
       id="linearGradient4481">
      <stop
         style="stop-color:#2fe077;stop-opacity:1"
         offset="0"
         id="stop4477" />
      <stop
         style="stop-color:#6a70db;stop-opacity:1"
         offset="1"
         id="stop4479" />
    </linearGradient>
    <style
       id="style211">.cls-1{fill:#fff;}</style>
    <filter
       id="mask-powermask-path-effect2033_inverse"
       inkscape:label="filtermask-powermask-path-effect2033"
       style="color-interpolation-filters:sRGB"
       height="100"
       width="100"
       x="-50"
       y="-50">
      <feColorMatrix
         id="mask-powermask-path-effect2033_primitive1"
         values="1"
         type="saturate"
         result="fbSourceGraphic" />
      <feColorMatrix
         id="mask-powermask-path-effect2033_primitive2"
         values="-1 0 0 0 1 0 -1 0 0 1 0 0 -1 0 1 0 0 0 1 0 "
         in="fbSourceGraphic" />
    </filter>
    <linearGradient
       inkscape:collect="always"
       xlink:href="#linearGradient4481"
       id="linearGradient4483"
       x1="10.358743"
       y1="946.60278"
       x2="1038.8661"
       y2="493.05994"
       gradientUnits="userSpaceOnUse"
       gradientTransform="translate(-0.02,-231.81)" />
  </defs>
  <sodipodi:namedview
     id="namedview53"
     pagecolor="#ffffff"
     bordercolor="#666666"
     borderopacity="1.0"
     inkscape:pageshadow="2"
     inkscape:pageopacity="0.0"
     inkscape:pagecheckerboard="true"
     inkscape:document-units="pt"
     showgrid="false"
     fit-margin-top="0"
     fit-margin-left="0"
     fit-margin-right="0"
     fit-margin-bottom="0"
     inkscape:zoom="0.51"
     inkscape:cx="607.84314"
     inkscape:cy="450.98039"
     inkscape:window-width="1920"
     inkscape:window-height="1027"
     inkscape:window-x="1920"
     inkscape:window-y="0"
     inkscape:window-maximized="1"
     inkscape:current-layer="svg51" />
  <path
     d="m 1047.6743,772.0835 h -902.5 C 143.7446,771.6069 0.944299,742.09554 -0.005701,531.70349 c 0,-124.23999 110.430001,-158.51 138.990001,-165.17 -2.3789,-34.273 -4.7617,-190.87999 144.23,-239.90999 24.277,-8.0938 48.074,-11.898 69.973,-11.898 81.871,0 124.24,55.691 139.47,82.348 19.992,-41.414 90.918,-161.37001 225.62,-161.37001 24.277,0 49.504,3.8086 75.207,11.426 91.391,27.133 153.27,73.30501 184.21,137.09001 37.129,76.637 18.562,155.18 9.9961,181.36 41.887,3.8086 207.06,27.609 212.3,182.79004 0,0.9531 3.8086,120.4299 -57.598,184.6899 -24.746,25.703 -56.641,39.03096 -94.719,39.03096 z m -900.59,-14.28096 h 900.59 c 34.273,0 62.832,-11.8981 84.727,-34.75 56.168,-59.0231 53.312,-172.79 53.312,-174.2101 -2.3789,-68.06595 -37.605,-117.56995 -105.2,-146.12995 -50.934,-21.895 -102.34,-23.32399 -102.82,-23.32399 h -9.9961 l 3.8086,-9.5195 c 0.47656,-0.95312 35.699,-92.82 -6.6641,-178.98 -29.035,-59.977 -88.535,-103.29001 -175.64,-129.47001 -24.277,-7.6133 -48.078,-11.422 -70.926,-11.422 -151.84,0 -218.48,164.22 -218.96,166.12 l -6.6641,16.66 -6.6641,-16.66 c -1.4297,-3.332 -36.176,-87.109 -133.28,-87.109 -20.469,0 -42.363,3.8086 -65.688,11.426 -155.18,50.934 -134.71,223.72 -133.76,230.86 l 0.95312,6.6641 -6.6641,0.95312 c -5.2344,0.95312 -133.280001,22.848 -133.280001,152.32001 0.48047,193.25002 121.860001,224.20002 132.810001,226.57002 z"
     id="path49-3"
     style="fill:#c00000;fill-opacity:0" />
  <g
     id="g338"
     style="fill:#ffffff;stroke:#1b1b1d;stroke-opacity:0.60000002;stroke-width:9;stroke-miterlimit:4;stroke-dasharray:none;opacity:1"
     transform="translate(-0.02,-231.81)">
    <g
       id="Layer_1-2"
       data-name="Layer 1"
       transform="matrix(1.582441,0,0,1.582441,414.97308,468.07789)"
       style="fill:#ffffff;stroke:#1b1b1d;stroke-opacity:0.60000002;stroke-width:5.68741583;stroke-miterlimit:4;stroke-dasharray:none">
      <path
         class="cls-1"
         d="M 233.85,109 V 78.92 A 16.23,16.23 0 0 0 226.22,65.15 L 125.53,2.22 c -4.73,-3 -12.48,-3 -17.21,0 L 7.63,65.15 A 16.23,16.23 0 0 0 0,78.92 v 98.92 a 16.22,16.22 0 0 0 7.63,13.77 L 111,256.22 a 24.36,24.36 0 0 0 12.91,3.7 h 101.82 a 8.11,8.11 0 0 0 8.12,-8.12 V 140.56 a 8.11,8.11 0 0 0 -8.12,-8.12 h -72.44 a 4.6,4.6 0 0 0 -4.37,3.11 33.78,33.78 0 0 1 -34.83,22.83 C 98.49,157.11 84.31,142.74 83.24,127.13 a 33.77,33.77 0 0 1 65.7,-13.13 4.61,4.61 0 0 0 4.38,3.12 h 72.41 a 8.12,8.12 0 0 0 8.12,-8.12 z"
         id="path229"
         style="fill:#ffffff;stroke:#1b1b1d;stroke-opacity:0.60000002;stroke-width:5.68741583;stroke-miterlimit:4;stroke-dasharray:none" />
    </g>
  </g>
  <path
     d="M 1047.68,736.38 H 145.18 C 143.7503,735.90344 0.95,706.392 0,496 0,371.76 110.43,337.49 138.99,330.83 136.6111,296.557 134.2283,139.95 283.22,90.92 c 24.277,-8.0938 48.074,-11.898 69.973,-11.898 81.871,0 124.24,55.691 139.47,82.348 C 512.655,119.956 583.581,0 718.283,0 c 24.277,0 49.504,3.8086 75.207,11.426 91.391,27.133 153.27,73.305 184.21,137.09 37.129,76.637 18.562,155.18 9.9961,181.36 41.887,3.8086 207.06,27.609 212.3,182.79 0,0.95312 3.8086,120.43 -57.598,184.69 -24.746,25.703 -56.641,39.031 -94.719,39.031 z M 147.09,722.099 h 900.59 c 34.273,0 62.832,-11.898 84.727,-34.75 56.168,-59.023 53.312,-172.79 53.312,-174.21 -2.3789,-68.066 -37.605,-117.57 -105.2,-146.13 -50.934,-21.895 -102.34,-23.324 -102.82,-23.324 h -9.9961 l 3.8086,-9.5195 c 0.47656,-0.95312 35.699,-92.82 -6.6641,-178.98 -29.035,-59.977 -88.535,-103.29 -175.64,-129.47 -24.277,-7.6133 -48.078,-11.422 -70.926,-11.422 -151.84,0 -218.48,164.22 -218.96,166.12 l -6.6641,16.66 -6.6641,-16.66 c -1.4297,-3.332 -36.176,-87.109 -133.28,-87.109 -20.469,0 -42.363,3.8086 -65.688,11.426 -155.18,50.934 -134.71,223.72 -133.76,230.86 l 0.95312,6.6641 -6.6641,0.95312 c -5.2344,0.95312 -133.28,22.848 -133.28,152.32 0.48047,193.25 121.86,224.2 132.81,226.57 z"
     id="path49"
     style="fill:url(#linearGradient4483);fill-opacity:1" />
</svg>
