<?xml version="1.0" encoding="UTF-8" standalone="no"?>
<svg
   xmlns:dc="http://purl.org/dc/elements/1.1/"
   xmlns:cc="http://creativecommons.org/ns#"
   xmlns:rdf="http://www.w3.org/1999/02/22-rdf-syntax-ns#"
   xmlns:svg="http://www.w3.org/2000/svg"
   xmlns="http://www.w3.org/2000/svg"
   xmlns:sodipodi="http://sodipodi.sourceforge.net/DTD/sodipodi-0.dtd"
   xmlns:inkscape="http://www.inkscape.org/namespaces/inkscape"
   viewBox="0 0 199.99999 200.00001"
   version="1.1"
   id="svg17"
   sodipodi:docname="logo.svg"
   width="200"
   height="200"
   inkscape:version="0.92.5 (2060ec1f9f, 2020-04-08)">
  <metadata
     id="metadata21">
    <rdf:RDF>
      <cc:Work
         rdf:about="">
        <dc:format>image/svg+xml</dc:format>
        <dc:type
           rdf:resource="http://purl.org/dc/dcmitype/StillImage" />
        <dc:title></dc:title>
      </cc:Work>
    </rdf:RDF>
  </metadata>
  <sodipodi:namedview
     pagecolor="#ffffff"
     bordercolor="#666666"
     borderopacity="1"
     objecttolerance="10"
     gridtolerance="10"
     guidetolerance="10"
     inkscape:pageopacity="0"
     inkscape:pageshadow="2"
     inkscape:window-width="1920"
     inkscape:window-height="1002"
     id="namedview19"
     showgrid="false"
     inkscape:zoom="0.40533811"
     inkscape:cx="-24.265829"
     inkscape:cy="291.11499"
     inkscape:window-x="0"
     inkscape:window-y="120"
     inkscape:window-maximized="1"
     inkscape:current-layer="svg17" />
  <defs
     id="defs11">
    <style
       id="style2">.cls-1{fill:url(#linear-gradient);}</style>
    <linearGradient
       id="linear-gradient"
       x1="13.22"
       y1="144.14"
       x2="580.10999"
       y2="471.44"
       gradientUnits="userSpaceOnUse">
      <stop
         offset="0"
         stop-color="#2fe077"
         id="stop4" />
      <stop
         offset="0.5"
         stop-color="#61d2c9"
         id="stop6" />
      <stop
         offset="1"
         stop-color="#6a70db"
         id="stop8" />
    </linearGradient>
  </defs>
  <g
     id="Layer_2"
     data-name="Layer 2"
     transform="matrix(0.38180318,0,0,0.34352309,0,-0.00942047)">
    <g
       id="Layer_1-2"
       data-name="Layer 1">
      <path
         class="cls-1"
         d="m 523.83,244.14 v -67.36 a 36.38,36.38 0 0 0 -17.1,-30.85 L 281.19,5 c -10.6,-6.63 -27.95,-6.63 -38.56,0 L 17.1,145.93 A 36.38,36.38 0 0 0 0,176.78 v 221.59 a 36.38,36.38 0 0 0 17.1,30.85 l 231.54,144.71 a 54.61,54.61 0 0 0 28.92,8.3 H 505.64 A 18.18,18.18 0 0 0 523.83,564 V 314.85 A 18.18,18.18 0 0 0 505.64,296.66 H 343.37 a 10.32,10.32 0 0 0 -9.8,7 75.66,75.66 0 0 1 -78,51.15 c -34.94,-2.85 -66.69,-35 -69.11,-70 a 75.65,75.65 0 0 1 147.19,-29.42 10.31,10.31 0 0 0 9.8,7 h 162.2 a 18.19,18.19 0 0 0 18.18,-18.25 z"
         id="path13"
         inkscape:connector-curvature="0"
         style="fill:url(#linear-gradient)" />
    </g>
  </g>
</svg>
